<svg width="100" height="87" viewBox="0 0 100 87" fill="none" xmlns="http://www.w3.org/2000/svg">
<g id="logo">
<path id="Vector" d="M33.1366 24.0835L31.9983 19.5452C29.5251 20.2504 27.094 21.1134 24.718 22.1295L26.361 26.4885C28.5723 25.543 30.8349 24.7399 33.1366 24.0835Z" fill="white"/>
<path id="Vector_2" d="M19.9048 29.7438L17.7833 25.626C15.5391 26.9399 13.3706 28.3955 11.2893 29.985L13.8596 33.8016C15.7971 32.3221 17.8158 30.9671 19.9048 29.7438Z" fill="white"/>
<path id="Vector_3" d="M0 41.0308L3.35158 44.0824C4.90091 42.1521 6.55816 40.3231 8.31431 38.6055L5.33318 35.1453C3.44588 36.9909 1.66491 38.9564 0 41.0308Z" fill="white"/>
<path id="Vector_4" d="M95.155 39.1401L91.9087 42.3179C93.521 44.1892 95.0268 46.1616 96.4182 48.2245L100 45.486C98.5057 43.2693 96.8878 41.1502 95.155 39.1401Z" fill="white"/>
<path id="Vector_5" d="M81.0605 32.4477C83.047 33.8521 84.9521 35.383 86.7654 37.0321L89.6282 33.4598C87.6795 31.6866 85.6316 30.0411 83.4956 28.5325L81.0605 32.4477Z" fill="white"/>
<path id="Vector_6" d="M76.8455 24.4334C74.5541 23.2145 72.1958 22.1437 69.7836 21.2268L68.3037 25.6515C70.5485 26.5041 72.7429 27.5004 74.8748 28.6351L76.8455 24.4334Z" fill="white"/>
<path id="Vector_7" d="M36.9715 27.6001L39.968 27.6016L42.4656 23.5658L47.2747 23.6011L44.2467 34.7241V34.9872C44.2475 35.6626 44.4996 36.3102 44.9479 36.7879C45.3961 37.2656 46.0039 37.5343 46.6378 37.5353H50.9819L57.8756 23.9143L63.2034 24.1022C65.9611 24.1022 68.2052 21.7965 68.2052 18.9641C68.2057 18.2754 68.0729 17.594 67.815 16.9625C67.5571 16.331 67.1796 15.763 66.7062 15.2941C65.7437 14.334 64.4697 13.808 63.1513 13.8263H63.1475L57.83 14.0158L50.9833 0.487882L46.6319 0.486328C45.9989 0.489462 45.3929 0.759268 44.946 1.23684C44.4991 1.71441 44.2477 2.36095 44.2467 3.03531V3.29755L47.2505 14.3321L42.4207 14.3766L39.9665 10.4209L36.9724 10.4216C36.3812 10.4222 35.8144 10.6726 35.3963 11.1179C34.9782 11.5632 34.7429 12.167 34.7422 12.7968V25.2256C34.7427 25.8553 34.9778 26.459 35.3958 26.9042C35.8138 27.3494 36.3805 27.5997 36.9715 27.6001ZM38.2113 14.2937L40.567 18.0905L51.8592 17.9865L48.1006 4.18309H48.9118L55.7976 17.7868L63.2057 17.5231C63.6195 17.5179 64.0195 17.6817 64.3234 17.9809C64.4519 18.1057 64.5548 18.2574 64.6259 18.4264C64.6969 18.5955 64.7344 18.7783 64.7362 18.9635C64.7362 19.7596 64.0486 20.4062 63.2615 20.4071L55.8431 20.1457L48.9112 33.8395H48.1L51.8833 19.9399L40.6066 19.8561L38.2098 23.7259V14.2937H38.2113Z" fill="white"/>
<path id="Vector_8" d="M57.1014 45.7175C54.2244 45.0179 51.2829 44.6637 48.3319 44.6616C29.8776 44.6616 14.1209 58.0705 10.0157 77.2685C9.38677 80.2152 9.05785 83.2255 9.03467 86.2473H13.4442C13.4625 84.3652 13.614 82.4873 13.8975 80.6295C16.3767 81.3066 18.9308 82.3932 19.7517 83.1064C19.7134 83.4095 19.6693 83.7162 19.6244 84.0255C19.5253 84.7107 19.418 85.4684 19.374 86.2473H23.7974C23.8436 85.7149 23.9223 85.1535 23.9817 84.741C24.0634 84.1749 24.1442 83.6113 24.1948 83.0664C24.469 80.1166 21.3291 77.7579 14.8748 76.049C16.5707 69.8116 19.7793 64.1604 24.1776 59.6647C28.5759 55.169 34.0084 51.9875 39.928 50.4406C39.1646 52.0458 38.6882 53.7884 38.5231 55.5793C38.4158 56.6158 38.2762 57.5521 38.1536 58.3766C37.6598 61.7007 37.1491 65.1381 41.3682 67.1391C43.0574 67.9573 44.8688 68.4516 46.7191 68.5992C47.3328 68.6508 47.9419 68.7516 48.5414 68.9006C48.7551 69.664 48.6472 71.5288 48.6038 72.2741C48.5488 73.2204 48.4929 74.1865 48.7639 74.9756C49.5202 79.1395 51.2781 83.0228 53.8657 86.2457H60.4999C54.122 81.8093 53.1059 74.225 53.0639 73.8915L52.9736 73.118C52.9825 72.9348 52.9934 72.7344 53.0037 72.5628C53.1456 70.118 53.4101 65.5649 50.1388 64.5002C49.1733 64.2039 48.1821 64.0124 47.1804 63.9287C45.952 63.791 44.8916 63.672 43.1634 62.8506C42.0325 62.3136 42.0325 62.3136 42.508 59.1117C42.6381 58.2359 42.7857 57.2416 42.9041 56.0954C43.1176 53.6218 44.0916 51.2925 45.675 49.4692C46.5532 49.3994 47.4385 49.3571 48.332 49.3571C50.9536 49.3592 53.5668 49.6738 56.1228 50.295C63.663 52.1265 70.42 56.5709 75.3354 62.9322C80.2508 69.2935 83.0469 77.2123 83.2857 85.448C82.9188 85.7039 82.4627 85.9741 81.9719 86.2456H87.6965C87.6292 76.8054 84.571 67.6662 79.0176 60.3099C73.4643 52.9535 65.7415 47.8115 57.1014 45.7175Z" fill="white"/>
</g>
</svg>
