<svg width="54" height="44" viewBox="0 0 54 44" fill="none" xmlns="http://www.w3.org/2000/svg">
<path d="M18.0342 12.4022L17.4306 10.1433C16.1191 10.4943 14.8299 10.9238 13.5699 11.4296L14.4412 13.5992C15.6138 13.1285 16.8136 12.7288 18.0342 12.4022Z" fill="#6B3DD8"/>
<path d="M11.0174 15.2195L9.89241 13.1699C8.70234 13.8239 7.55239 14.5484 6.4487 15.3395L7.81168 17.2391C8.83913 16.5027 9.90961 15.8283 11.0174 15.2195Z" fill="#6B3DD8"/>
<path d="M0.462158 20.8371L2.23946 22.3559C3.06105 21.3952 3.93987 20.4849 4.87114 19.63L3.29028 17.9077C2.28947 18.8264 1.34504 19.8046 0.462158 20.8371Z" fill="#6B3DD8"/>
<path d="M50.9216 19.896L49.2001 21.4776C50.0551 22.409 50.8537 23.3907 51.5915 24.4175L53.491 23.0545C52.6985 21.9512 51.8405 20.8965 50.9216 19.896Z" fill="#6B3DD8"/>
<path d="M43.4474 16.5651C44.5008 17.2642 45.5111 18.0261 46.4726 18.8469L47.9907 17.0689C46.9573 16.1863 45.8713 15.3673 44.7387 14.6165L43.4474 16.5651Z" fill="#6B3DD8"/>
<path d="M41.2124 12.5762C39.9973 11.9695 38.7467 11.4366 37.4675 10.9802L36.6828 13.1825C37.8732 13.6068 39.0368 14.1027 40.1673 14.6675L41.2124 12.5762Z" fill="#6B3DD8"/>
<path d="M20.0677 14.1524L21.6567 14.1531L22.9812 12.1444L25.5314 12.162L23.9257 17.6982V17.8291C23.9261 18.1653 24.0598 18.4876 24.2975 18.7253C24.5352 18.9631 24.8575 19.0968 25.1936 19.0973H27.4973L31.1529 12.3178L33.9782 12.4114C35.4406 12.4114 36.6306 11.2638 36.6306 9.85403C36.6309 9.51125 36.5604 9.1721 36.4236 8.8578C36.2869 8.54349 36.0867 8.26079 35.8357 8.02737C35.3252 7.54953 34.6497 7.28774 33.9506 7.29684H33.9486L31.1287 7.39113L27.498 0.658L25.1905 0.657227C24.8548 0.658786 24.5335 0.793075 24.2965 1.03077C24.0595 1.26847 23.9262 1.59027 23.9257 1.92591V2.05643L25.5186 7.54859L22.9573 7.57074L21.6559 5.60191L20.0682 5.60225C19.7547 5.60252 19.4541 5.72715 19.2324 5.94878C19.0107 6.17041 18.8859 6.47094 18.8855 6.78443V12.9705C18.8858 13.2839 19.0105 13.5844 19.2321 13.806C19.4538 14.0276 19.7543 14.1522 20.0677 14.1524ZM20.7251 7.52944L21.9744 9.41923L27.9625 9.36747L25.9693 2.49719H26.3995L30.051 9.26805L33.9794 9.1368C34.1988 9.1342 34.4109 9.21575 34.5721 9.36468C34.6402 9.42679 34.6948 9.50227 34.7325 9.58641C34.7701 9.67056 34.7901 9.76157 34.791 9.85375C34.791 10.25 34.4264 10.5718 34.009 10.5723L30.0751 10.4421L26.3992 17.2578H25.969L27.9752 10.3397L21.9954 10.298L20.7243 12.2241V7.52944H20.7251Z" fill="#FF4081"/>
<path d="M30.7425 23.1698C29.2168 22.8216 27.657 22.6453 26.0921 22.6443C16.306 22.6443 7.95042 29.3182 5.77351 38.8735C5.43998 40.3401 5.26556 41.8384 5.25327 43.3424H7.5916C7.6013 42.4057 7.68165 41.471 7.83196 40.5463C9.14663 40.8833 10.5011 41.4241 10.9364 41.7791C10.9161 41.93 10.8927 42.0826 10.8689 42.2366C10.8163 42.5776 10.7594 42.9547 10.7361 43.3424H13.0818C13.1062 43.0774 13.148 42.798 13.1795 42.5927C13.2228 42.3109 13.2657 42.0304 13.2925 41.7592C13.4379 40.291 11.7729 39.117 8.3502 38.2665C9.24952 35.162 10.951 32.3493 13.2834 30.1117C15.6157 27.874 18.4965 26.2905 21.6356 25.5206C21.2308 26.3196 20.9782 27.1869 20.8906 28.0783C20.8338 28.5942 20.7597 29.0602 20.6947 29.4705C20.4329 31.125 20.162 32.8359 22.3994 33.8318C23.2951 34.2391 24.2557 34.4851 25.2369 34.5586C25.5623 34.5842 25.8853 34.6344 26.2032 34.7086C26.3165 35.0885 26.2593 36.0167 26.2363 36.3876C26.2071 36.8586 26.1775 37.3395 26.3212 37.7322C26.7223 39.8047 27.6545 41.7375 29.0266 43.3416H32.5447C29.1625 41.1335 28.6237 37.3586 28.6014 37.1926L28.5536 36.8076C28.5583 36.7165 28.5641 36.6167 28.5695 36.5313C28.6448 35.3145 28.785 33.0483 27.0503 32.5184C26.5383 32.3709 26.0127 32.2756 25.4815 32.234C24.8301 32.1654 24.2678 32.1062 23.3513 31.6974C22.7516 31.4301 22.7516 31.4301 23.0038 29.8364C23.0728 29.4005 23.151 28.9056 23.2138 28.3352C23.327 27.104 23.8435 25.9446 24.6832 25.0371C25.1489 25.0024 25.6184 24.9813 26.0922 24.9813C27.4824 24.9824 28.8681 25.139 30.2235 25.4481C34.222 26.3597 37.8052 28.5718 40.4118 31.738C43.0183 34.9041 44.5011 38.8455 44.6277 42.9446C44.4332 43.0719 44.1913 43.2064 43.931 43.3416H46.9667C46.931 38.643 45.3093 34.0942 42.3644 30.4328C39.4195 26.7714 35.3242 24.212 30.7425 23.1698Z" fill="#6B3DD8"/>
</svg>
